<?xml version="1.0" encoding="iso-8859-1"?>
<!-- Generator: Adobe Illustrator 19.0.0, SVG Export Plug-In . SVG Version: 6.00 Build 0)  -->
<svg xmlns="http://www.w3.org/2000/svg" xmlns:xlink="http://www.w3.org/1999/xlink" version="1.1" id="Layer_1" x="0px" y="0px" viewBox="0 0 512 512" style="enable-background:new 0 0 512 512;" xml:space="preserve">
<g>
	<g>
		<g>
			<path d="M281.123,205.001h-50.245c-5.549,0-10.049,4.499-10.049,10.049v57.28c0,5.55,4.5,10.049,10.049,10.049h50.245     c5.549,0,10.049-4.499,10.049-10.049v-57.28C291.172,209.5,286.672,205.001,281.123,205.001z M271.074,262.281h-30.147v-37.182     h30.147V262.281z"/>
			<path d="M452.291,491.902h-40.531V344.241h13.566c4.772,0,8.887-3.356,9.845-8.032c0.958-4.676-1.505-9.38-5.894-11.257     l-97.91-41.869v-98.179h7.537c3.975,0,7.577-2.343,9.188-5.977c1.611-3.634,0.928-7.876-1.742-10.822L266.049,79.53V49.743     h18.088c5.549,0,10.049-4.499,10.049-10.049c0-5.55-4.5-10.049-10.049-10.049h-18.088V10.049C266.049,4.499,261.549,0,256,0     c-5.549,0-10.049,4.499-10.049,10.049v19.596h-18.088c-5.549,0-10.049,4.499-10.049,10.049c0,5.55,4.5,10.049,10.049,10.049     h18.088V79.53l-80.3,88.573c-2.67,2.945-3.353,7.187-1.743,10.822c1.611,3.635,5.212,5.977,9.188,5.977h7.537v98.18     l-97.91,41.869c-4.388,1.877-6.852,6.581-5.894,11.257c0.958,4.676,5.073,8.032,9.845,8.032h13.566v147.66H59.709     c-5.549,0-10.049,4.499-10.049,10.049S54.159,512,59.709,512h392.583c5.549,0,10.049-4.499,10.049-10.049     S457.841,491.902,452.291,491.902z M256,98.369l60.231,66.435H195.769L256,98.369z M288.659,491.902h-65.319v-97.978     c0-18.008,14.651-32.659,32.659-32.659c18.009,0,32.659,14.652,32.659,32.659V491.902z M391.662,491.902h-82.905v-97.978     c0-29.091-23.668-52.758-52.758-52.758s-52.758,23.667-52.758,52.758v97.978h-82.905V330.726l74.295-31.771     c3.699-1.582,6.098-5.216,6.098-9.239V184.903h110.54v104.812c0,4.023,2.4,7.658,6.098,9.239l74.295,31.771V491.902z"/>
			<path d="M348.954,420.386c5.549,0,10.049-4.499,10.049-10.049V378.18c0-5.549-4.5-10.049-10.049-10.049     c-5.549,0-10.049,4.499-10.049,10.049v32.157C338.905,415.887,343.405,420.386,348.954,420.386z"/>
			<path d="M348.954,467.616c5.549,0,10.049-4.499,10.049-10.049v-4.02c0-5.549-4.5-10.049-10.049-10.049     c-5.549,0-10.049,4.499-10.049,10.049v4.02C338.905,463.117,343.405,467.616,348.954,467.616z"/>
			<path d="M163.046,368.13c-5.549,0-10.049,4.499-10.049,10.049v32.157c0,5.55,4.5,10.049,10.049,10.049     c5.549,0,10.049-4.499,10.049-10.049V378.18C173.095,372.63,168.595,368.13,163.046,368.13z"/>
		</g>
	</g>
</g>
<g>
</g>
<g>
</g>
<g>
</g>
<g>
</g>
<g>
</g>
<g>
</g>
<g>
</g>
<g>
</g>
<g>
</g>
<g>
</g>
<g>
</g>
<g>
</g>
<g>
</g>
<g>
</g>
<g>
</g>
</svg>
