<?xml version="1.0" encoding="UTF-8" standalone="no"?>
<!-- Created with Inkscape (http://www.inkscape.org/) -->

<svg
   xmlns:dc="http://purl.org/dc/elements/1.1/"
   xmlns:cc="http://creativecommons.org/ns#"
   xmlns:rdf="http://www.w3.org/1999/02/22-rdf-syntax-ns#"
   xmlns:svg="http://www.w3.org/2000/svg"
   xmlns="http://www.w3.org/2000/svg"
   xmlns:sodipodi="http://sodipodi.sourceforge.net/DTD/sodipodi-0.dtd"
   xmlns:inkscape="http://www.inkscape.org/namespaces/inkscape"
   width="20.445692mm"
   height="23.467947mm"
   viewBox="0 0 20.445695 23.467951"
   version="1.1"
   id="svg2044"
   inkscape:version="0.92.5 (2060ec1f9f, 2020-04-08)"
   sodipodi:docname="telesferico_line.svg">
  <defs
     id="defs2038" />
  <sodipodi:namedview
     id="base"
     pagecolor="#ffffff"
     bordercolor="#666666"
     borderopacity="1.0"
     inkscape:pageopacity="0.0"
     inkscape:pageshadow="2"
     inkscape:zoom="0.35"
     inkscape:cx="-417.22843"
     inkscape:cy="-158.80645"
     inkscape:document-units="mm"
     inkscape:current-layer="layer1"
     showgrid="false"
     fit-margin-top="1"
     fit-margin-right="1"
     fit-margin-bottom="1"
     fit-margin-left="1"
     inkscape:window-width="1848"
     inkscape:window-height="1016"
     inkscape:window-x="72"
     inkscape:window-y="27"
     inkscape:window-maximized="1" />
  <metadata
     id="metadata2041">
    <rdf:RDF>
      <cc:Work
         rdf:about="">
        <dc:format>image/svg+xml</dc:format>
        <dc:type
           rdf:resource="http://purl.org/dc/dcmitype/StillImage" />
        <dc:title></dc:title>
      </cc:Work>
    </rdf:RDF>
  </metadata>
  <g
     inkscape:label="Capa 1"
     inkscape:groupmode="layer"
     id="layer1"
     transform="translate(-30.649752,-74.056408)">
    <g
       transform="matrix(0.35277777,0,0,-0.35277777,-41.397824,194.22757)"
       id="g1778">
      <path
         d="m 242.051,328.523 -3.663,-1 c -0.557,-0.15 -0.881,-0.723 -0.73,-1.278 0.126,-0.462 0.545,-0.767 1.003,-0.767 0.089,0 0.184,0.012 0.274,0.037 l 3.664,1 c 0.556,0.152 0.88,0.724 0.729,1.279 -0.149,0.555 -0.714,0.876 -1.277,0.729"
         style="fill:#363536;fill-opacity:1;fill-rule:nonzero;stroke:none;stroke-width:0.1"
         id="path152"
         inkscape:connector-curvature="0" />
      <path
         d="m 245.474,323.844 c 0.126,-0.462 0.546,-0.767 1.004,-0.767 0.089,0 0.183,0.012 0.274,0.037 l 6.728,1.836 c 0.556,0.15 0.88,0.723 0.729,1.279 -0.15,0.55 -0.721,0.874 -1.277,0.73 l -6.728,-1.837 c -0.556,-0.152 -0.881,-0.724 -0.73,-1.278"
         style="fill:#363536;fill-opacity:1;fill-rule:nonzero;stroke:none;stroke-width:0.1"
         id="path154"
         inkscape:connector-curvature="0" />
      <path
         d="m 215.251,318.875 c 0.089,0 0.183,0.012 0.274,0.037 l 6.728,1.838 c 0.555,0.152 0.88,0.723 0.729,1.278 -0.148,0.551 -0.715,0.874 -1.278,0.73 l -6.727,-1.838 c -0.556,-0.152 -0.881,-0.724 -0.73,-1.279 0.126,-0.461 0.546,-0.766 1.004,-0.766"
         style="fill:#363536;fill-opacity:1;fill-rule:nonzero;stroke:none;stroke-width:0.1"
         id="path156"
         inkscape:connector-curvature="0" />
      <path
         d="m 254.261,279.036 h -13.737 v 24.063 c 0,0.575 -0.466,1.04 -1.041,1.04 h -12.551 c -0.575,0 -1.04,-0.465 -1.04,-1.04 v -24.063 h -13.737 c -1.66,0 -3.009,1.35 -3.009,3.009 v 6.772 l 16.124,0.02 -0.004,2.082 -16.12,-0.019 v 10.466 l 16.144,-0.016 0.004,2.082 -16.148,0.017 v 5.708 c 0,1.658 1.349,3.007 3.009,3.007 h 42.106 c 1.659,0 3.008,-1.349 3.008,-3.007 v -5.711 l -5.698,0.002 v -0.047 c -0.08,0.018 -0.159,0.047 -0.24,0.047 -0.002,0.002 -0.246,0.002 -0.248,0.002 -0.575,0 -1.041,-0.465 -1.041,-1.041 0,-0.575 0.466,-1.041 1.041,-1.041 l 0.488,-0.002 v 0 0 l 5.698,-0.002 v -10.468 h -16.077 v -2.082 h 16.077 v -6.769 c 0,-1.659 -1.349,-3.009 -3.008,-3.009 z m -21.054,20.035 c 0.575,0 1.041,0.466 1.041,1.041 v 1.946 h 4.194 v -23.022 h -4.194 v 5.918 12.298 c 0,0.575 -0.466,1.041 -1.041,1.041 -0.576,0 -1.041,-0.466 -1.041,-1.041 v -12.298 -5.918 h -4.192 v 23.022 h 4.192 v -1.946 c 0,-0.575 0.465,-1.041 1.041,-1.041 z m -11.692,17.586 H 244.9 l 1.871,-2.411 h -27.127 z m 9.596,4.178 c 0,1.157 0.939,2.096 2.096,2.096 1.157,0 2.098,-0.939 2.098,-2.096 0,-1.157 -0.941,-2.096 -2.098,-2.096 -1.157,0 -2.096,0.939 -2.096,2.096 z m 23.15,-6.589 h -4.853 l -3.174,4.09 c -0.197,0.255 -0.502,0.403 -0.823,0.403 h -8.609 c 0.362,0.618 0.585,1.329 0.585,2.096 0,1.942 -1.339,3.565 -3.139,4.031 v 6.063 l 17.715,4.836 c 0.555,0.153 0.881,0.725 0.73,1.279 -0.151,0.553 -0.721,0.873 -1.279,0.73 l -36.961,-10.09 c -0.557,-0.152 -0.882,-0.723 -0.73,-1.278 0.126,-0.462 0.545,-0.767 1.003,-0.767 0.089,0 0.184,0.012 0.274,0.037 l 17.166,4.685 v -5.495 c -1.799,-0.466 -3.137,-2.089 -3.137,-4.031 0,-0.767 0.223,-1.478 0.585,-2.096 h -8.61 c -0.321,0 -0.626,-0.148 -0.822,-0.403 l -3.174,-4.09 h -4.853 c -2.808,0 -5.091,-2.283 -5.091,-5.089 v -27.112 c 0,-2.809 2.283,-5.091 5.091,-5.091 h 42.106 c 2.808,0 5.09,2.282 5.09,5.091 v 27.112 c 0,2.806 -2.282,5.089 -5.09,5.089"
         style="fill:#363536;fill-opacity:1;fill-rule:nonzero;stroke:none;stroke-width:0.1"
         id="path158"
         inkscape:connector-curvature="0" />
      <path
         d="m 245.65,301.368 h 0.828 c 0.576,0 1.041,0.466 1.041,1.041 0,0.576 -0.465,1.041 -1.041,1.041 h -0.827 l -4.462,0.002 v -2.082 l 4.461,-0.002 v 0"
         style="fill:#363536;fill-opacity:1;fill-rule:nonzero;stroke:none;stroke-width:0.1"
         id="path160"
         inkscape:connector-curvature="0" />
    </g>
  </g>
</svg>
